<svg width="22" height="15" viewBox="0 0 22 15" fill="none" xmlns="http://www.w3.org/2000/svg">
<path d="M0.90625 2.63393H21.2188C21.6502 2.63393 22 2.37189 22 2.04861V0.585317C22 0.262039 21.6502 0 21.2188 0H0.90625C0.474756 0 0.125 0.262039 0.125 0.585317V2.04861C0.125 2.37189 0.474756 2.63393 0.90625 2.63393ZM0.90625 8.4871H21.2188C21.6502 8.4871 22 8.22506 22 7.90179V6.43849C22 6.11521 21.6502 5.85317 21.2188 5.85317H0.90625C0.474756 5.85317 0.125 6.11521 0.125 6.43849V7.90179C0.125 8.22506 0.474756 8.4871 0.90625 8.4871ZM0.90625 14.3403H21.2188C21.6502 14.3403 22 14.0782 22 13.755V12.2917C22 11.9684 21.6502 11.7063 21.2188 11.7063H0.90625C0.474756 11.7063 0.125 11.9684 0.125 12.2917V13.755C0.125 14.0782 0.474756 14.3403 0.90625 14.3403Z" fill="#373737"/>
</svg>
